<svg width="72" height="31" viewBox="0 0 72 31" fill="none" xmlns="http://www.w3.org/2000/svg">
<path fill-rule="evenodd" clip-rule="evenodd" d="M30.7259 13.1477C29.4914 13.1477 28.7262 14.0076 28.7262 18.2876V21.3861C28.7262 25.6661 29.4914 26.5261 30.7259 26.5261C31.9609 26.5261 32.7262 25.6661 32.7262 21.3861V18.2876C32.7262 14.0076 31.9609 13.1477 30.7259 13.1477ZM30.9259 30.5801C27.2867 30.5801 24.3262 27.359 24.3262 23.3992V16.6799C24.3262 12.7207 27.2867 9.49902 30.9259 9.49902C34.5657 9.49902 37.5262 12.7207 37.5262 16.6799V23.3992C37.5262 27.359 34.5657 30.5801 30.9259 30.5801Z" fill="#010612"/>
<path fill-rule="evenodd" clip-rule="evenodd" d="M40.928 13.2409H38.9023V9.92826H40.928C40.928 6.28972 39.9747 3.12346 43.9158 1.88975C45.7609 1.31246 47.7396 1.78008 48.5378 2.23477V5.30637C46.2335 4.63081 45.1668 5.58467 45.1668 7.85966V9.92826H48.4189V13.2409H45.1668V30.6701H40.928V13.2409Z" fill="#010612"/>
<path fill-rule="evenodd" clip-rule="evenodd" d="M50.6094 30.6706H54.9165V9.92822H50.6094V30.6706Z" fill="#010612"/>
<path fill-rule="evenodd" clip-rule="evenodd" d="M52.7366 6.17167C51.9573 6.17167 51.3423 5.93476 50.8911 5.46093C50.4404 4.9871 50.2148 4.29291 50.2148 3.37888C50.2148 2.87091 50.273 2.44519 50.3904 2.10069C50.5073 1.7567 50.6742 1.48047 50.8911 1.27149C51.1085 1.06251 51.3729 0.910428 51.6842 0.814214C51.9961 0.718517 52.3528 0.67041 52.7535 0.67041C53.5885 0.67041 54.2229 0.885081 54.6572 1.31391C55.0915 1.74273 55.3085 2.43071 55.3085 3.37888C55.3085 4.25877 55.0885 4.94417 54.649 5.43558C54.2091 5.92648 53.5716 6.17167 52.7366 6.17167Z" fill="#010612"/>
<path fill-rule="evenodd" clip-rule="evenodd" d="M58.5488 9.92808H62.8559C62.8559 9.92808 62.5686 11.6584 62.4737 12.1601C63.5955 10.5576 65.1501 9.65186 67.1631 9.65186C70.3499 9.65186 71.4528 12.232 71.4528 15.4842V30.6704H67.1457C67.1457 16.1504 67.4958 14.5194 66.669 13.4564C65.9514 12.5347 64.1493 12.4767 62.8559 14.4657V30.6704H58.5488V9.92808Z" fill="#010612"/>
<path fill-rule="evenodd" clip-rule="evenodd" d="M16.8848 30.6705H21.1919V3.77197H16.8848V30.6705Z" fill="#010612"/>
<path fill-rule="evenodd" clip-rule="evenodd" d="M10.0954 18.0059L7.54446 19.6472C8.68466 20.3636 8.65557 22.1343 8.65557 23.3328C8.65557 24.6544 8.96894 27.3733 6.54207 27.6433C5.56827 27.7519 4.44849 27.6873 3.59513 27.7126V22.1875L0 24.5008V30.6704H6.35068V30.6699C9.13992 30.6585 11.43 30.0926 12.3022 27.3919C12.7391 26.0382 12.7279 24.6374 12.7279 22.9019C12.7279 20.8224 12.191 18.9344 10.0954 18.0059Z" fill="#010612"/>
<path fill-rule="evenodd" clip-rule="evenodd" d="M3.59513 16.1587V8.87598C4.15961 8.91425 6.43081 8.40525 7.5021 9.55982C8.51623 10.6539 8.26155 12.4183 8.29932 13.2035C8.29932 13.5703 8.26818 13.8925 8.21153 14.177L12.1905 11.617C12.1905 9.16048 11.7944 5.85352 5.14618 5.85352H0V5.91559V19.4595L3.59513 17.1467V16.1587Z" fill="#010612"/>
<path fill-rule="evenodd" clip-rule="evenodd" d="M0 19.4599V24.5008L9.48136 18.4006C11.1544 17.3246 12.1849 15.3357 12.1849 13.1828V11.6211L0 19.4599Z" fill="#FF6600"/>
</svg>
