<svg xmlns="http://www.w3.org/2000/svg" width="20" height="20" viewBox="0 0 20 20" fill="none">
<path d="M9.99996 18.8817C5.39758 18.8817 1.66663 15.1507 1.66663 10.5484C1.66663 5.94599 5.39758 2.21503 9.99996 2.21503C14.6023 2.21503 18.3333 5.94599 18.3333 10.5484C18.3333 15.1507 14.6023 18.8817 9.99996 18.8817ZM9.16663 13.0484V14.715H10.8333V13.0484H9.16663ZM10.8333 11.6776C12.038 11.319 12.9166 10.2029 12.9166 8.88169C12.9166 7.27086 11.6108 5.96503 9.99996 5.96503C8.58496 5.96503 7.40527 6.97269 7.13938 8.30958L8.77396 8.6365C8.88796 8.06355 9.39354 7.63169 9.99996 7.63169C10.6903 7.63169 11.25 8.19134 11.25 8.88169C11.25 9.57203 10.6903 10.1317 9.99996 10.1317C9.53971 10.1317 9.16663 10.5048 9.16663 10.965V12.215H10.8333V11.6776Z" fill="#FF8800"/>
</svg>