<svg
                width="18"
                height="18"
                viewBox="0 0 18 18"
                fill="none"
                xmlns="http://www.w3.org/2000/svg">
                <mask id="path-1-inside-1_1517_12924" fill="white">
                  <path d="M12.1287 9.75005L3 9.75005L3 8.25005L12.1287 8.25005L8.1057 4.22704L9.16635 3.16638L15 9.00005L9.16635 14.8336L8.1057 13.773L12.1287 9.75005Z" />
                </mask>
                <path
                  d="M12.1287 9.75005L3 9.75005L3 8.25005L12.1287 8.25005L8.1057 4.22704L9.16635 3.16638L15 9.00005L9.16635 14.8336L8.1057 13.773L12.1287 9.75005Z"
                  fill="#0A0A0A"
                />
                <path
                  d="M12.1287 9.75005L13.1893 10.8107L15.75 8.25005L12.1287 8.25005L12.1287 9.75005ZM3 9.75005L1.5 9.75005L1.5 11.25L3 11.25L3 9.75005ZM3 8.25005L3 6.75005L1.5 6.75005L1.5 8.25005L3 8.25005ZM12.1287 8.25005L12.1287 9.75005L15.75 9.75005L13.1893 7.18939L12.1287 8.25005ZM8.1057 4.22704L7.04504 3.16638L5.98439 4.22704L7.04504 5.2877L8.1057 4.22704ZM9.16635 3.16638L10.227 2.10572L9.16635 1.04506L8.10569 2.10573L9.16635 3.16638ZM15 9.00005L16.0607 10.0607L17.1213 9.00005L16.0607 7.93939L15 9.00005ZM9.16635 14.8336L8.10569 15.8943L9.16634 16.9549L10.227 15.8943L9.16635 14.8336ZM8.1057 13.773L7.04505 12.7123L5.98437 13.773L7.04504 14.8336L8.1057 13.773ZM12.1287 8.25005L3 8.25005L3 11.25L12.1287 11.25L12.1287 8.25005ZM4.5 9.75005L4.5 8.25005L1.5 8.25005L1.5 9.75005L4.5 9.75005ZM3 9.75005L12.1287 9.75005L12.1287 6.75005L3 6.75005L3 9.75005ZM13.1893 7.18939L9.16636 3.16638L7.04504 5.2877L11.068 9.3107L13.1893 7.18939ZM9.16636 5.2877L10.227 4.22704L8.10569 2.10573L7.04504 3.16638L9.16636 5.2877ZM8.10569 4.22704L13.9393 10.0607L16.0607 7.93939L10.227 2.10572L8.10569 4.22704ZM13.9393 7.93938L8.1057 13.773L10.227 15.8943L16.0607 10.0607L13.9393 7.93938ZM10.227 13.773L9.16636 12.7123L7.04504 14.8336L8.10569 15.8943L10.227 13.773ZM9.16635 14.8336L13.1893 10.8107L11.068 8.68938L7.04505 12.7123L9.16635 14.8336Z"
                  fill="#2F54EB"
                  mask="url(#path-1-inside-1_1517_12924)"
                />
              </svg>