<?xml version="1.0" standalone="no"?><!DOCTYPE svg PUBLIC "-//W3C//DTD SVG 1.1//EN" "http://www.w3.org/Graphics/SVG/1.1/DTD/svg11.dtd"><svg t="1762759193065" class="icon" viewBox="0 0 1024 1024" version="1.1" xmlns="http://www.w3.org/2000/svg" p-id="8938" xmlns:xlink="http://www.w3.org/1999/xlink" width="200" height="200"><path d="M512 85.333333a42.666667 42.666667 0 0 1 42.666667 42.666667v128a42.666667 42.666667 0 0 1-85.333334 0V128a42.666667 42.666667 0 0 1 42.666667-42.666667z m0 640a42.666667 42.666667 0 0 1 42.666667 42.666667v128a42.666667 42.666667 0 0 1-85.333334 0v-128a42.666667 42.666667 0 0 1 42.666667-42.666667z m426.666667-213.333333a42.666667 42.666667 0 0 1-42.666667 42.666667h-128a42.666667 42.666667 0 0 1 0-85.333334h128a42.666667 42.666667 0 0 1 42.666667 42.666667zM298.666667 512a42.666667 42.666667 0 0 1-42.666667 42.666667H128a42.666667 42.666667 0 0 1 0-85.333334h128a42.666667 42.666667 0 0 1 42.666667 42.666667z m515.029333 301.696a42.666667 42.666667 0 0 1-60.330667 0l-90.496-90.496a42.666667 42.666667 0 0 1 60.330667-60.330667l90.496 90.453334a42.709333 42.709333 0 0 1 0 60.373333zM361.130667 361.130667a42.666667 42.666667 0 0 1-60.330667 0l-90.453333-90.453334a42.666667 42.666667 0 0 1 60.330666-60.373333l90.453334 90.496a42.666667 42.666667 0 0 1 0 60.330667zM210.346667 813.696a42.666667 42.666667 0 0 1 0-60.330667l90.496-90.496a42.666667 42.666667 0 1 1 60.330666 60.330667l-90.453333 90.496a42.666667 42.666667 0 0 1-60.373333 0zM662.869333 361.130667a42.666667 42.666667 0 0 1 0-60.330667l90.453334-90.496a42.666667 42.666667 0 1 1 60.373333 60.330667L723.2 361.130667a42.666667 42.666667 0 0 1-60.330667 0z" fill="#1A1A1A" p-id="8939"></path></svg>