<svg width="16" height="16" viewBox="0 0 16 16" fill="none" xmlns="http://www.w3.org/2000/svg">
<g id="search-fill">
<path id="Vector" d="M12.0206 11.0785L14.8757 13.9337L13.9329 14.8765L11.0778 12.0213C10.0512 12.8427 8.74925 13.334 7.33325 13.334C4.02125 13.334 1.33325 10.646 1.33325 7.33398C1.33325 4.02198 4.02125 1.33398 7.33325 1.33398C10.6453 1.33398 13.3333 4.02198 13.3333 7.33398C13.3333 8.74998 12.8419 10.0519 12.0206 11.0785ZM10.6831 10.5839C11.4983 9.74372 11.9999 8.59772 11.9999 7.33398C11.9999 4.75565 9.91159 2.66732 7.33325 2.66732C4.75492 2.66732 2.66659 4.75565 2.66659 7.33398C2.66659 9.91232 4.75492 12.0007 7.33325 12.0007C8.59699 12.0007 9.74299 11.499 10.5831 10.6838L10.6831 10.5839Z" fill="#0A0A0A" fill-opacity="0.4"/>
</g>
</svg>
